<?xml version="1.0" standalone="no"?>
<!DOCTYPE svg PUBLIC "-//W3C//DTD SVG 20010904//EN"
 "http://www.w3.org/TR/2001/REC-SVG-20010904/DTD/svg10.dtd">
<svg version="1.0" xmlns="http://www.w3.org/2000/svg"
 width="300.000000pt" height="300.000000pt" viewBox="0 0 300.000000 300.000000"
 preserveAspectRatio="xMidYMid meet">
<metadata>
Created by potrace 1.11, written by Peter Selinger 2001-2013
</metadata>
<g transform="translate(0.000000,300.000000) scale(0.100000,-0.100000)"
fill="#000000" stroke="none">
<path d="M847 2219 c-149 -35 -269 -176 -284 -333 -25 -269 245 -478 497 -385
30 11 62 22 70 25 10 3 55 -38 129 -116 l114 -122 -202 -202 c-185 -186 -201
-205 -201 -237 0 -40 27 -75 65 -85 30 -7 81 12 98 37 7 9 93 99 191 200 l179
182 206 -212 c187 -192 209 -212 239 -211 46 0 82 38 82 85 0 33 -16 52 -200
243 l-199 207 117 118 118 118 49 -22 c61 -27 174 -36 244 -19 121 29 232 140
266 265 77 284 -191 543 -472 456 -229 -70 -323 -303 -219 -542 5 -13 -22 -50
-105 -140 -61 -68 -115 -125 -119 -127 -11 -4 -245 248 -243 262 1 6 11 36 22
66 25 67 27 166 6 237 -54 183 -257 297 -448 252z"/>
</g>
</svg>
